<svg width="557" height="226" viewBox="0 0 557 226" fill="none" xmlns="http://www.w3.org/2000/svg">
<path d="M119.172 225.401C44.5528 225.401 0.600098 180.6 0.600098 112.252C0.600098 44.4018 49.7472 0.598694 120.97 0.598694C154.434 0.598694 176.211 7.08434 190.096 14.6676V61.5638L187.898 62.7612C171.916 53.2821 153.835 45.8985 127.663 45.8985C85.7084 45.9983 61.1349 70.8433 61.1349 113.748C61.1349 156.653 81.1134 180.301 120.671 180.301C129.262 180.301 136.953 179.403 144.046 177.208V138.893H106.586V98.3824H200.585V200.856C183.603 212.829 160.328 225.401 119.172 225.401Z" fill="white"/>
<path d="M238.044 187.086C244.94 187.086 250.53 181.502 250.53 174.614C250.53 167.725 244.94 162.141 238.044 162.141C231.148 162.141 225.557 167.725 225.557 174.614C225.557 181.502 231.148 187.086 238.044 187.086Z" fill="#62B8E8"/>
<path d="M238.044 145.478C244.94 145.478 250.53 139.894 250.53 133.006C250.53 126.117 244.94 120.533 238.044 120.533C231.148 120.533 225.557 126.117 225.557 133.006C225.557 139.894 231.148 145.478 238.044 145.478Z" fill="#A8C30B"/>
<path d="M238.044 103.97C244.94 103.97 250.53 98.3859 250.53 91.4976C250.53 84.6092 244.94 79.0251 238.044 79.0251C231.148 79.0251 225.557 84.6092 225.557 91.4976C225.557 98.3859 231.148 103.97 238.044 103.97Z" fill="#EFAA00"/>
<path d="M238.044 62.362C244.94 62.362 250.53 56.778 250.53 49.8896C250.53 43.0013 244.94 37.4172 238.044 37.4172C231.148 37.4172 225.557 43.0013 225.557 49.8896C225.557 56.778 231.148 62.362 238.044 62.362Z" fill="#D10A10"/>
<path d="M333.341 105.666C310.666 105.666 297.38 92.0963 297.38 71.3422C297.38 50.7877 312.264 37.4172 333.94 37.4172C344.129 37.4172 350.722 39.4128 354.918 41.7077V55.8764L354.219 56.2755C349.324 53.3819 343.83 51.1868 335.938 51.1868C323.152 51.1868 315.66 58.77 315.66 71.7413C315.66 84.7126 321.754 91.9965 333.741 91.9965C336.338 91.9965 338.635 91.6972 340.833 91.0985V79.4243H329.445V67.0517H358.015V98.1828C352.92 101.775 345.828 105.666 333.341 105.666Z" fill="white"/>
<path d="M363.209 78.6261C363.209 61.963 374.996 51.8853 390.579 51.8853C406.263 51.8853 418.05 61.963 418.05 78.6261C418.05 95.2892 406.163 105.566 390.579 105.566C374.896 105.566 363.209 95.2892 363.209 78.6261ZM401.767 78.7259C401.767 68.4486 397.272 63.5594 390.579 63.5594C383.987 63.5594 379.491 68.4486 379.491 78.7259C379.491 89.0031 383.987 93.8923 390.579 93.8923C397.272 93.8923 401.767 89.0031 401.767 78.7259Z" fill="white"/>
<path d="M440.825 105.367C431.835 105.367 424.843 102.473 424.843 91.7969V64.4574H419.049V53.0826H424.843V44.9007L440.925 42.4062V53.0826H451.114V64.4574H440.925V88.7038C440.925 92.196 442.623 93.3934 445.92 93.3934C447.718 93.3934 449.516 92.9943 450.715 92.6949L451.314 92.9943V104.07C448.817 104.768 444.921 105.367 440.825 105.367Z" fill="white"/>
<path d="M484.578 98.6817C481.981 102.274 477.885 105.566 470.493 105.566C461.004 105.566 453.811 100.478 453.811 90.3003C453.811 79.6239 461.403 75.6327 473.99 74.0362L483.479 72.8389C483.479 66.3532 480.583 64.2579 473.79 64.2579C466.797 64.2579 462.502 66.0539 458.506 68.1493L457.807 67.9497V55.8764C461.803 53.5815 467.996 51.8853 476.487 51.8853C491.371 51.8853 499.462 57.6725 499.462 72.7391V104.269H485.677L484.578 98.6817ZM483.479 91.2981V82.2181L477.386 83.0164C471.692 83.8146 469.295 85.5109 469.295 89.3025C469.295 92.7947 471.293 95.0897 475.688 95.0897C479.284 94.9899 481.781 93.4932 483.479 91.2981Z" fill="white"/>
<path d="M354.618 145.977L337.836 186.188H331.943L314.961 145.279V185.789H300.477V120.134H320.355L335.539 156.554L350.623 120.134H371.001V185.789H354.618V145.977Z" fill="white"/>
<path d="M406.662 187.086C386.983 187.086 377.594 176.709 377.594 159.846C377.594 144.381 387.783 133.505 403.266 133.505C418.25 133.505 428.139 142.585 426.241 164.237H393.376C394.575 171.92 399.27 175.113 408.161 175.113C415.353 175.113 420.048 173.516 424.443 171.421L425.142 171.72V183.394C421.646 185.091 415.553 187.086 406.662 187.086ZM393.476 154.059H411.457C411.057 147.474 408.56 144.181 403.266 144.181C398.071 144.181 394.675 147.174 393.476 154.059Z" fill="white"/>
<path d="M466.897 179.204C463.401 184.093 458.406 186.986 451.214 186.986C438.428 186.986 429.737 178.106 429.737 160.545C429.737 142.585 439.027 133.305 451.614 133.305C457.807 133.305 462.102 135.5 465.399 139.092V118.538L481.482 115.844V185.789H468.496L466.897 179.204ZM465.499 171.321V148.472C463.201 146.376 460.504 145.179 456.508 145.179C450.015 145.179 446.02 150.467 446.02 160.545C446.02 170.323 450.315 174.614 456.309 174.614C460.404 174.614 463.201 173.416 465.499 171.321Z" fill="white"/>
<path d="M489.473 116.442H505.456V129.414H489.473V116.442ZM489.473 134.602H505.556V185.789H489.473V134.602Z" fill="white"/>
<path d="M541.517 180.102C538.92 183.694 534.824 186.986 527.432 186.986C517.942 186.986 510.75 181.898 510.75 171.72C510.75 161.044 518.342 157.053 530.928 155.456L540.418 154.259C540.418 147.773 537.521 145.678 530.728 145.678C523.736 145.678 519.441 147.474 515.445 149.569L514.746 149.37V137.396C518.741 135.101 524.935 133.405 533.426 133.405C548.31 133.405 556.401 139.192 556.401 154.259V185.789H542.616L541.517 180.102ZM540.418 172.818V163.638L534.325 164.436C528.631 165.234 526.233 166.931 526.233 170.722C526.233 174.215 528.231 176.51 532.626 176.51C536.223 176.51 538.72 175.013 540.418 172.818Z" fill="white"/>
</svg>
