<?xml version="1.0" encoding="UTF-8"?>
<svg xmlns="http://www.w3.org/2000/svg" xmlns:xlink="http://www.w3.org/1999/xlink" width="50px" height="50px" viewBox="0 0 50 45" version="1.1">
<g id="surface1">
<path style=" stroke:none;fill-rule:nonzero;fill:rgb(100%,100%,100%);fill-opacity:1;" d="M 23.71875 45 C 8.800781 45 0.0195312 36.039062 0.0195312 22.339844 C 0.0195312 8.777344 9.84375 0 24.085938 0 C 30.777344 0 35.136719 1.289062 37.902344 2.824219 L 37.902344 12.214844 L 37.472656 12.464844 C 34.277344 10.5625 30.65625 9.09375 25.4375 9.09375 C 17.027344 9.09375 12.113281 14.066406 12.113281 22.660156 C 12.113281 31.257812 16.109375 35.984375 24.027344 35.984375 C 25.746094 35.984375 27.28125 35.800781 28.691406 35.371094 L 28.691406 27.6875 L 21.195312 27.6875 L 21.195312 19.582031 L 39.988281 19.582031 L 39.988281 40.089844 C 36.617188 42.484375 31.945312 45 23.71875 45 Z M 23.71875 45 "/>
<path style=" stroke:none;fill-rule:nonzero;fill:rgb(38.823529%,72.54902%,91.372549%);fill-opacity:1;" d="M 49.980469 34.84375 C 49.980469 36.222656 48.859375 37.339844 47.480469 37.339844 C 46.101562 37.339844 44.984375 36.222656 44.984375 34.84375 C 44.984375 33.464844 46.101562 32.34375 47.480469 32.34375 C 48.859375 32.34375 49.980469 33.464844 49.980469 34.84375 Z M 49.980469 34.84375 "/>
<path style=" stroke:none;fill-rule:nonzero;fill:rgb(66.27451%,76.470588%,4.705882%);fill-opacity:1;" d="M 49.980469 26.515625 C 49.980469 27.894531 48.859375 29.015625 47.480469 29.015625 C 46.101562 29.015625 44.984375 27.894531 44.984375 26.515625 C 44.984375 25.136719 46.101562 24.019531 47.480469 24.019531 C 48.859375 24.019531 49.980469 25.136719 49.980469 26.515625 Z M 49.980469 26.515625 "/>
<path style=" stroke:none;fill-rule:nonzero;fill:rgb(94.117647%,66.666667%,0%);fill-opacity:1;" d="M 49.980469 18.191406 C 49.980469 19.570312 48.859375 20.6875 47.480469 20.6875 C 46.101562 20.6875 44.984375 19.570312 44.984375 18.191406 C 44.984375 16.808594 46.101562 15.691406 47.480469 15.691406 C 48.859375 15.691406 49.980469 16.808594 49.980469 18.191406 Z M 49.980469 18.191406 "/>
<path style=" stroke:none;fill-rule:nonzero;fill:rgb(82.352941%,3.921569%,6.666667%);fill-opacity:1;" d="M 49.980469 9.863281 C 49.980469 11.242188 48.859375 12.363281 47.480469 12.363281 C 46.101562 12.363281 44.984375 11.242188 44.984375 9.863281 C 44.984375 8.484375 46.101562 7.367188 47.480469 7.367188 C 48.859375 7.367188 49.980469 8.484375 49.980469 9.863281 Z M 49.980469 9.863281 "/>
</g>
</svg>
